<mxfile host="65bd71144e">
    <diagram id="kwMvekwdZS0xsXhFGqWE" name="Page-1">
        <mxGraphModel dx="104" dy="406" grid="1" gridSize="10" guides="1" tooltips="1" connect="1" arrows="1" fold="1" page="1" pageScale="1" pageWidth="1169" pageHeight="827" math="0" shadow="0">
            <root>
                <mxCell id="0"/>
                <mxCell id="1" parent="0"/>
                <mxCell id="11" value="Customer" style="swimlane;fontStyle=0;childLayout=stackLayout;horizontal=1;startSize=26;fillColor=none;horizontalStack=0;resizeParent=1;resizeParentMax=0;resizeLast=0;collapsible=1;marginBottom=0;" parent="1" vertex="1">
                    <mxGeometry x="260" y="74.78" width="140" height="156" as="geometry">
                        <mxRectangle x="160" y="120" width="90" height="30" as="alternateBounds"/>
                    </mxGeometry>
                </mxCell>
                <mxCell id="12" value="_id: ObjectId" style="text;strokeColor=none;fillColor=none;align=left;verticalAlign=top;spacingLeft=4;spacingRight=4;overflow=hidden;rotatable=0;points=[[0,0.5],[1,0.5]];portConstraint=eastwest;" parent="11" vertex="1">
                    <mxGeometry y="26" width="140" height="26" as="geometry"/>
                </mxCell>
                <mxCell id="13" value="name: String" style="text;strokeColor=none;fillColor=none;align=left;verticalAlign=top;spacingLeft=4;spacingRight=4;overflow=hidden;rotatable=0;points=[[0,0.5],[1,0.5]];portConstraint=eastwest;" parent="11" vertex="1">
                    <mxGeometry y="52" width="140" height="26" as="geometry"/>
                </mxCell>
                <mxCell id="14" value="phone: String" style="text;strokeColor=none;fillColor=none;align=left;verticalAlign=top;spacingLeft=4;spacingRight=4;overflow=hidden;rotatable=0;points=[[0,0.5],[1,0.5]];portConstraint=eastwest;" parent="11" vertex="1">
                    <mxGeometry y="78" width="140" height="26" as="geometry"/>
                </mxCell>
                <mxCell id="38" value="id_document: String" style="text;strokeColor=none;fillColor=none;align=left;verticalAlign=top;spacingLeft=4;spacingRight=4;overflow=hidden;rotatable=0;points=[[0,0.5],[1,0.5]];portConstraint=eastwest;" parent="11" vertex="1">
                    <mxGeometry y="104" width="140" height="26" as="geometry"/>
                </mxCell>
                <mxCell id="113" value="email: String" style="text;strokeColor=none;fillColor=none;align=left;verticalAlign=top;spacingLeft=4;spacingRight=4;overflow=hidden;rotatable=0;points=[[0,0.5],[1,0.5]];portConstraint=eastwest;" parent="11" vertex="1">
                    <mxGeometry y="130" width="140" height="26" as="geometry"/>
                </mxCell>
                <mxCell id="15" value="Sale" style="swimlane;fontStyle=0;childLayout=stackLayout;horizontal=1;startSize=26;fillColor=none;horizontalStack=0;resizeParent=1;resizeParentMax=0;resizeLast=0;collapsible=1;marginBottom=0;" parent="1" vertex="1">
                    <mxGeometry x="500" y="74.78" width="140" height="130" as="geometry">
                        <mxRectangle x="400" y="120" width="60" height="30" as="alternateBounds"/>
                    </mxGeometry>
                </mxCell>
                <mxCell id="16" value="_id: ObjectId" style="text;strokeColor=none;fillColor=none;align=left;verticalAlign=top;spacingLeft=4;spacingRight=4;overflow=hidden;rotatable=0;points=[[0,0.5],[1,0.5]];portConstraint=eastwest;" parent="15" vertex="1">
                    <mxGeometry y="26" width="140" height="26" as="geometry"/>
                </mxCell>
                <mxCell id="17" value="datetime: DateTime" style="text;strokeColor=none;fillColor=none;align=left;verticalAlign=top;spacingLeft=4;spacingRight=4;overflow=hidden;rotatable=0;points=[[0,0.5],[1,0.5]];portConstraint=eastwest;" parent="15" vertex="1">
                    <mxGeometry y="52" width="140" height="26" as="geometry"/>
                </mxCell>
                <mxCell id="18" value="number: Number" style="text;strokeColor=none;fillColor=none;align=left;verticalAlign=top;spacingLeft=4;spacingRight=4;overflow=hidden;rotatable=0;points=[[0,0.5],[1,0.5]];portConstraint=eastwest;" parent="15" vertex="1">
                    <mxGeometry y="78" width="140" height="26" as="geometry"/>
                </mxCell>
                <mxCell id="67" value="customer_id: ObjectId" style="text;strokeColor=none;fillColor=none;align=left;verticalAlign=top;spacingLeft=4;spacingRight=4;overflow=hidden;rotatable=0;points=[[0,0.5],[1,0.5]];portConstraint=eastwest;" parent="15" vertex="1">
                    <mxGeometry y="104" width="140" height="26" as="geometry"/>
                </mxCell>
                <mxCell id="50" style="edgeStyle=none;rounded=0;html=1;exitX=0.5;exitY=0;exitDx=0;exitDy=0;entryX=0.5;entryY=1;entryDx=0;entryDy=0;startArrow=diamondThin;startFill=1;endArrow=open;endFill=0;endSize=12;startSize=14;" parent="1" source="19" target="15" edge="1">
                    <mxGeometry relative="1" as="geometry"/>
                </mxCell>
                <mxCell id="51" value="n" style="edgeLabel;html=1;align=center;verticalAlign=middle;resizable=0;points=[];" parent="50" vertex="1" connectable="0">
                    <mxGeometry x="-0.7157" y="-3" relative="1" as="geometry">
                        <mxPoint x="7" y="-2" as="offset"/>
                    </mxGeometry>
                </mxCell>
                <mxCell id="19" value="SaleItem" style="swimlane;fontStyle=0;childLayout=stackLayout;horizontal=1;startSize=26;fillColor=none;horizontalStack=0;resizeParent=1;resizeParentMax=0;resizeLast=0;collapsible=1;marginBottom=0;" parent="1" vertex="1">
                    <mxGeometry x="500" y="310.78" width="140" height="104" as="geometry">
                        <mxRectangle x="400" y="280" width="90" height="30" as="alternateBounds"/>
                    </mxGeometry>
                </mxCell>
                <mxCell id="21" value="order: Number" style="text;strokeColor=none;fillColor=none;align=left;verticalAlign=top;spacingLeft=4;spacingRight=4;overflow=hidden;rotatable=0;points=[[0,0.5],[1,0.5]];portConstraint=eastwest;" parent="19" vertex="1">
                    <mxGeometry y="26" width="140" height="26" as="geometry"/>
                </mxCell>
                <mxCell id="22" value="quantity: Number" style="text;strokeColor=none;fillColor=none;align=left;verticalAlign=top;spacingLeft=4;spacingRight=4;overflow=hidden;rotatable=0;points=[[0,0.5],[1,0.5]];portConstraint=eastwest;" parent="19" vertex="1">
                    <mxGeometry y="52" width="140" height="26" as="geometry"/>
                </mxCell>
                <mxCell id="69" value="product_id: ObjectId" style="text;strokeColor=none;fillColor=none;align=left;verticalAlign=top;spacingLeft=4;spacingRight=4;overflow=hidden;rotatable=0;points=[[0,0.5],[1,0.5]];portConstraint=eastwest;" parent="19" vertex="1">
                    <mxGeometry y="78" width="140" height="26" as="geometry"/>
                </mxCell>
                <mxCell id="23" value="Supplier" style="swimlane;fontStyle=0;childLayout=stackLayout;horizontal=1;startSize=26;fillColor=none;horizontalStack=0;resizeParent=1;resizeParentMax=0;resizeLast=0;collapsible=1;marginBottom=0;" parent="1" vertex="1">
                    <mxGeometry x="505" y="498" width="140" height="156" as="geometry"/>
                </mxCell>
                <mxCell id="24" value="_id: ObjectId" style="text;strokeColor=none;fillColor=none;align=left;verticalAlign=top;spacingLeft=4;spacingRight=4;overflow=hidden;rotatable=0;points=[[0,0.5],[1,0.5]];portConstraint=eastwest;" parent="23" vertex="1">
                    <mxGeometry y="26" width="140" height="26" as="geometry"/>
                </mxCell>
                <mxCell id="25" value="name: String" style="text;strokeColor=none;fillColor=none;align=left;verticalAlign=top;spacingLeft=4;spacingRight=4;overflow=hidden;rotatable=0;points=[[0,0.5],[1,0.5]];portConstraint=eastwest;" parent="23" vertex="1">
                    <mxGeometry y="52" width="140" height="26" as="geometry"/>
                </mxCell>
                <mxCell id="58" value="phone: String" style="text;strokeColor=none;fillColor=none;align=left;verticalAlign=top;spacingLeft=4;spacingRight=4;overflow=hidden;rotatable=0;points=[[0,0.5],[1,0.5]];portConstraint=eastwest;" parent="23" vertex="1">
                    <mxGeometry y="78" width="140" height="26" as="geometry"/>
                </mxCell>
                <mxCell id="59" value="country: String" style="text;strokeColor=none;fillColor=none;align=left;verticalAlign=top;spacingLeft=4;spacingRight=4;overflow=hidden;rotatable=0;points=[[0,0.5],[1,0.5]];portConstraint=eastwest;" parent="23" vertex="1">
                    <mxGeometry y="104" width="140" height="26" as="geometry"/>
                </mxCell>
                <mxCell id="112" value="email: String" style="text;strokeColor=none;fillColor=none;align=left;verticalAlign=top;spacingLeft=4;spacingRight=4;overflow=hidden;rotatable=0;points=[[0,0.5],[1,0.5]];portConstraint=eastwest;" parent="23" vertex="1">
                    <mxGeometry y="130" width="140" height="26" as="geometry"/>
                </mxCell>
                <mxCell id="60" style="edgeStyle=none;rounded=0;html=1;entryX=0.998;entryY=0.243;entryDx=0;entryDy=0;startArrow=diamondThin;startFill=1;endArrow=open;endFill=0;startSize=14;endSize=12;entryPerimeter=0;" parent="1" edge="1">
                    <mxGeometry relative="1" as="geometry">
                        <mxPoint x="800" y="470" as="sourcePoint"/>
                        <mxPoint x="644.72" y="582.318" as="targetPoint"/>
                        <Array as="points">
                            <mxPoint x="800" y="582"/>
                        </Array>
                    </mxGeometry>
                </mxCell>
                <mxCell id="61" value="n" style="edgeLabel;html=1;align=center;verticalAlign=middle;resizable=0;points=[];" parent="60" vertex="1" connectable="0">
                    <mxGeometry x="-0.7533" y="-4" relative="1" as="geometry">
                        <mxPoint x="14" y="-26" as="offset"/>
                    </mxGeometry>
                </mxCell>
                <mxCell id="27" value="Product" style="swimlane;fontStyle=0;childLayout=stackLayout;horizontal=1;startSize=26;fillColor=none;horizontalStack=0;resizeParent=1;resizeParentMax=0;resizeLast=0;collapsible=1;marginBottom=0;" parent="1" vertex="1">
                    <mxGeometry x="740" y="310.78" width="140" height="156" as="geometry">
                        <mxRectangle x="640" y="276" width="80" height="30" as="alternateBounds"/>
                    </mxGeometry>
                </mxCell>
                <mxCell id="28" value="_id*: ObjectId" style="text;strokeColor=none;fillColor=none;align=left;verticalAlign=top;spacingLeft=4;spacingRight=4;overflow=hidden;rotatable=0;points=[[0,0.5],[1,0.5]];portConstraint=eastwest;" parent="27" vertex="1">
                    <mxGeometry y="26" width="140" height="26" as="geometry"/>
                </mxCell>
                <mxCell id="29" value="description*: String" style="text;strokeColor=none;fillColor=none;align=left;verticalAlign=top;spacingLeft=4;spacingRight=4;overflow=hidden;rotatable=0;points=[[0,0.5],[1,0.5]];portConstraint=eastwest;" parent="27" vertex="1">
                    <mxGeometry y="52" width="140" height="26" as="geometry"/>
                </mxCell>
                <mxCell id="30" value="unit*: String" style="text;strokeColor=none;fillColor=none;align=left;verticalAlign=top;spacingLeft=4;spacingRight=4;overflow=hidden;rotatable=0;points=[[0,0.5],[1,0.5]];portConstraint=eastwest;" parent="27" vertex="1">
                    <mxGeometry y="78" width="140" height="26" as="geometry"/>
                </mxCell>
                <mxCell id="48" value="price*: Number " style="text;strokeColor=none;fillColor=none;align=left;verticalAlign=top;spacingLeft=4;spacingRight=4;overflow=hidden;rotatable=0;points=[[0,0.5],[1,0.5]];portConstraint=eastwest;" parent="27" vertex="1">
                    <mxGeometry y="104" width="140" height="26" as="geometry"/>
                </mxCell>
                <mxCell id="70" value="supplier_id: ObjectId" style="text;strokeColor=none;fillColor=none;align=left;verticalAlign=top;spacingLeft=4;spacingRight=4;overflow=hidden;rotatable=0;points=[[0,0.5],[1,0.5]];portConstraint=eastwest;" parent="27" vertex="1">
                    <mxGeometry y="130" width="140" height="26" as="geometry"/>
                </mxCell>
                <mxCell id="46" value="n" style="endArrow=open;html=1;endSize=12;startArrow=diamondThin;startSize=14;startFill=1;edgeStyle=orthogonalEdgeStyle;align=left;verticalAlign=bottom;exitX=-0.019;exitY=0.08;exitDx=0;exitDy=0;exitPerimeter=0;entryX=1.008;entryY=0.085;entryDx=0;entryDy=0;entryPerimeter=0;" parent="1" source="15" target="11" edge="1">
                    <mxGeometry x="-0.7203" y="-3" relative="1" as="geometry">
                        <mxPoint x="480" y="84.78" as="sourcePoint"/>
                        <mxPoint x="400" y="84.78" as="targetPoint"/>
                        <mxPoint as="offset"/>
                    </mxGeometry>
                </mxCell>
                <mxCell id="52" style="edgeStyle=none;rounded=0;html=1;entryX=-0.012;entryY=0.079;entryDx=0;entryDy=0;startArrow=diamondThin;startFill=1;endArrow=open;endFill=0;startSize=14;endSize=12;exitX=1.008;exitY=0.096;exitDx=0;exitDy=0;exitPerimeter=0;entryPerimeter=0;" parent="1" source="19" target="27" edge="1">
                    <mxGeometry relative="1" as="geometry"/>
                </mxCell>
                <mxCell id="56" value="n" style="edgeLabel;html=1;align=center;verticalAlign=middle;resizable=0;points=[];" parent="52" vertex="1" connectable="0">
                    <mxGeometry x="-0.8445" y="-4" relative="1" as="geometry">
                        <mxPoint y="-18" as="offset"/>
                    </mxGeometry>
                </mxCell>
                <mxCell id="64" value="" style="shape=stencil(lZ3ZsiQ3jkS/Rq9p3Jfnnun/kJlKLVlrVLKSepa/H9Kqc7nukYdVb1qAmxFBEgQcgOOH/Lc/f/nxj08/pPDnX18+//PT//z601+//JD/44eUfv39l09ffv1r/dMP+T9/yH/7+fOXT//48vlfv//09d//+HFL7n/6r8//vf/C/37VC7cetlIK//f1P8R8m1//y9+/yv/26+8f5GtT+ZRJvoh8uo1E8nmo/L//yzv5+lE+Hp4/F5XPE+XjR/lwG53k01D5jN8nfXyeeRv4+CmIeMKnjx+/zriNSOJhinjGdw35g3i/TVyqEES84U4IH5+93SZ/yCjiCZ+9fFyneniYHkWcvnu8pY/PXm4NxWcT8QibIOkezrhn0q1XES+wTPkWp4jHRuLt4yZY57u+Fy+6Z9KtonipIp7gYeotyum7ddgETR8m3q3JG/Eptua+RS/Fxy32D+JrE8F3H/fD8xRv8Krzfhqe4hXElxmaReRpFyyzG5rKwwHZ14C+babnKbcaVR5MU6y6iwOe72iLFfCeikNtX7ifg2v5qfYm4DF5fo4X+QLy8VaTysP3Xwej2fOTUcj3a+wpH+B919EKuj1Rvvl+QPmuJ/0gP+72+hvl5/3wvciTFVznxf4+ySe1JQf5fF/Ob5Qvbk0C7P9c79vxRZ7MeLtYXzBuS34GlYf9nNdlb/JwHvO42D+w//OF+QxgT/LaD3peSL4s423rS/LxYr/B85d1bZo8fJ+y3HR7fvj+paoryOtbmts3lO93c/aNz9PV5znID/UzDt9zra/9fbCHNbr9p7+/5Mf3PH9NF/sBzm99+HTfZs9rcX8gwnrV5utF913t91Dg2+7TOm5Vv2ei57lYL/L0WvDzgvJrvex5SD65faDnb/lWv+f7tOL2DeXrreh64fO0W9Hnz7Cf27p/9XkKPc9wf4b8zzbvr/fi3sJ+6w/z+uI9s7zZ5wHnscdb0fM14Pl78vNykDf7QHFRz35e8O8XDTED4h69ajgd8f5a8kNDqQT7p7db6yJfwL518wci4kJ93MrH/ZDusd61/Lyby6c8xTtLvuvfH7D/hwFVGe3JiLqf8/2DvZOX+66g/zaS3tcF47UlL9+/3A3wO3m5XyreRyMrsFXvSOA7ebFXFeGeJS/3aUP7s+Snyk/6/kWRto444ZKX/dnx/C55Wd+B8e+SF3syENoYa3k+Ps/E+33J//t6eMoTMLPkmwGjuCGqXvBLodIbV72xN4ZBr9zuHtULtou/0HSPxmVUaNM1vSTjA1x7p6BWMSMcvBRGVQVEjfrd7XwoPCLFdwqC7y0FApqWgtz0sbKp6+qqRAZXl0IVHK5h8LMUmimQdV8Kgh498aF3ClO2d0d/aAyNn5fCpJcetvnG3SV5pyAWZilQKmIp6BU70QdcCuLzLoXOLz0/bu8dRdCJm/ed86KAZmzq1tgYLX2leXf7XhQGbI0Z7n7NQ2FdjeA5LgX1RDJCeUtBoKql0OEdlsIQhYKJmBnVudtwHVj7paDrUNFdXgqSx1v3Z6N3iPbSHQHhpSBHdN1w5PFMi+j2lQi7dSZ1wdYdh4+UzIecaDW2gqRawt2teasgXmREmGKam7cUyPJthawKE47oVpB3SGg1tkJXhc4KklPdYCi/dJ6qQMHFUpB7eimgEUia1s4FzcxSaFUVDpuvS9KuIkAzH/HHi0LldxDEeilQPnYryGdtmGufWTHupUDWeyvIL/AtOrPt1oEe2Xy4Uy8KlTZf1jzDRo5pHQzYyfN+AbxTkEzMUqB7eikMCd0C5iFnVuy9MNixFT6+Q4l8poteKE88+51ClHA13f2bdwpy7S6Fxr8gK10y33GWO14KuDWKhcQZXbil0OWzltNn1UQ/R92zKupUKn/WR13CiwIaY8MVSzv9Qh2qgFujKjJXOn+lqqFu4Vh6tjtU/1AYbMiaxkBLAe+HpmhPmfcijHcKupcmf6WmeH9lQH4piPVeCuiRdXVOKkOASyEHVSBMaSmUpAoEei4FSXLXhHU1W2GqAl67Xe/pmjE83gpTFRr/glzstWAmdysMVaj8CxIO7GQP/4Lk9ms9LZy40vUQDlh4XBumIy4VsLylqzdT++mzugL63lcKBKFvBdlLg3fr0IBjKWDgZyBCnVj1Ma3GqE7eS0O9+6WAd9zQAsv2KHF8p1CLKuBntcxui7xwQ531lhAumoacLIXv+0otcyw6FG1dCujNDHWlW2Gfz/bSUuhkvYeWW7aK2Mze3lMVCD6d3SD1B2T7rQoNkcRLBUISL96hcxw3rMr0UZjwdqVle487Ev6NR7RNvnaHZh6WQiFjPDRoasczLdu7c7L3UgGDJgM3O6cD/R2WwmQjoArrTPNKS4Kjp9MvCOTVD/HDUF+jF6yZWQrDFNCFm7pbe8Wqw2l461JAqzEVOemHIzrVX1oKVGO+FMSb6YdwYKpz0jsmXaaVxvbBUMtUM7MUyP2JwWvZJ4Mz/hOTd99U72RwAe404Htwp8JSkNaPETmmMSx+cM5+KUgAMRJbY9vfI3HUNOwd8sk7kfh4J5I5HtC8a+H42NJl43BRN1u4w6Fu2mOyFCrtJaud3qlSeqSq8fHOfJJCuXs7Lwr4WYteEDsvyUCfxMc7zchgZTEF3K2Gbo6D2UjqVu4E2ndlLMbEpP+M2qWy01usIAu301u0NYIig5O7FPb//ri9dy6JVjpoyL5TQ/xIgiLMxM53UA9rrwwld+1GmdyUtpfp4wHauDPlOccddHtRwF+w2HJyys9z5vOYxpfYcqORXLsguamNFVKSvd4f4EWhg6lcClKwsZE8Su4WheG2LaSqFquqWwpkKkdSQ7ZxNlq4qBUe6wLA6gjroNyQE1XiTfVDn0DEtYJ5uvvWo9q3rknFHWKTQlMocbLDtN1U2a0Ty6WXI6y/wPVLPWu/w/Z96R0s9TonRuArIPFfoIKNHrTFYytQTe1UHHty5NcM6DspNK1yPClURXNO71DMVB5+IWuSfU6sFGxRA4jtmMIBatbruRWo9t5qR3eUQ8XuBho/netrBeuOmhNdh1rsyppYn1rd8k0EZ6ol2Z9x1LVCvHgHgk6q9zpPxLGL1YxPDpqKYS0vkdq1Rtcjd9SodrVPLEssVydiUqtL0lbNyXhOidpLeVjrEuzinZioycOuRe5Tz/1iN1HQnq3f6HCEsjU07UNKHWjWQbfNAHylnDVFPRlcz+lig5MjmuOFAlUk5XBxIsjb2PwAfo/CIyULkJ9B+bVC1270OfA8JMulTk6+7srxoAoUXO7S96YK5Bsnq/F45hiuFZLdowPxzV2EaL9AKerdnmHvQP7MBZPEwA6JOLU+YoPh1FI97JbruNLR4PtnovGdQnIFMAK7TriqAq10LBbvcpZwKUje5eDfR7caDQvuYro7VC8K5GJthpOqCoSdLAUBKnaJBX3WoKDX5O6NGMxqVK6JVdxuBaMIbJhHVvC8jYvomNL+ljeaGcFTj74zBnHud3NCsWmx07N+8Nq3spOWMDapFrUmRASrXecRMxXV1ivifiiKge6iaZRXg82F50VLTndhOXz/omDJmNx+bigx3wdZU0WDuwWy3mijIzyUFQLYjSX495PJ022TNQv6bO95I6/MQhXbXbNa3Q2iI8eNZksKuzlacjkyhoTGrrH74eg21v05EraPJb2LR8R216QxxYhMP6Kx2oah4PtbmXmfWIKXFHfuD36Ub5Qfh+8vYE3vGJxeyRNQmKzbj9sb/PtULHJJer56RTjL5QtiHC6fER64kqf70d+XeZt8fSMHBRqb7XoB/vtekMB/P6s8uX1JobvGUEWy+h8GsVx+oJPoz8PtokmxytYP+1nOS2un/SPPz+261lTSCmIgSf3JlhGgMEq0xtXklrprXJ/yqC15yDP9QtIi6XqIotUfqx39z6RZuMpF2MlKSCuH0FZBWg77QWspuXTeIK7K/nCy0ktuL3D50/pqdzvTUyTrwGCw1NggCqczzD8p42CvZD8UTnYbflH6wV+S1F7hhtuk3eGlYnxn52X3OaC9kvirFIy/rCGsMJ2C2YfdO4L7TezPbk7h+1Te99FQ9m32tiTMuieNXzZGjOsltQ+HjiJrpVzyfF+7PMVTJp85XksK4+eTvRV0LQ/MUlknaOYaNG8EbZi58D7QdrAPKl+RV8D8n1wO7ysJgsy1j9FaCRNmzKK2A2SOd6I1Qwb0x6L2HOUD/aPan01/ge8rmF0a6J9ExR/SwPvL6ng2WS7KB5On/HrQ9UoN70dj29qIE/59qdbaID4yD8v9lcqBxlnWN5XT37eefX5+ifd3igD/vuTHEvszQf29A+lA0Pv3GcG9k3cWBH5+o1kg+xD0ft9fGOX1fDE9nVEmRLb/9v0jF9kH4wMZ6M8EtT+R2wSC+oexI95i7FBLnp7fznts6P9ExeuWPPlXLl/xvruSR3pevY9iQXzpSh7pi00+4/3r3z9xasvKBhJXjGu8HxMWBVttRUyH9ZUSlyVP/mpUe7jl8e9L4/KWR/9NibjTwf9UjqGE9Gjmz8d0wEurrRfHp/o988GfFHbMeMLTlIQpH87LtL9PTRNRi1S2PO6HYs+DdNy2P/PJn7HnoXyQn6+M8cLV+aWagmhUYUzkFTX+inxfG7tkTEzPboRWfL6isTMez6Ofd4yndOwFv28yyi/+nkkrlg7r9f3ykl872H+X5/slqX91uL9cvnI1h+0Hvn+T+UvM4pC0rDM2vI98fTvT0St+GzvGg24PxwkfMHnKR1h8uv1DtLfKPTgRP4+K1x38W2MHP/jPTo7F/nlUUoKD/2/x8iG+sPvlEL+Yv3GIj6LWhxzir3gRf1F8Z1X7O37E9XV5rGSy56lY7uXfk/OJUZn60qFmSPH8jQ/g3xd8Pp3yR3Jfp3HAb6PhIYwPS3Fbmgf7rIxh4YQnR5Wn+M7YczNPmrH6gZywkd3Y4jf+hs8v65uZ/tfyI0f80KnCCJ+8Ygqj+zcb3sj4qk3POOC32fBYxoetm+SAP5v8Ad++ksdK4Qt5ijftfTf+j/JS/3Cg77J6ocL72digC8dTWfvWD9xd2fIphceRaGdy4c57q6cqXL9xJY/18hr/FsZjrbn1OX/jnXxReX4ezZed6tnEfu78JtaP1aryXP+m+fSA+f2s+OQh/5vVnh/yyy7P+T5//oz54qz5zVoO513H2VWsB8jG1NUQPzGaxcqV3PmCZgjHDxlJCo/nsKaxxjSodh+1hPn9bOQ5p/oTJarh5tqkeM6xfkZ5bbg+J6s/dqj/yUaDw/VFWfOnh/oll+f6qCt5yvdlZUE/1HfZfjjUj9l+ONanKd3Hqf5N8NVjfZ34b8f6PZc/1PMYMw3XH6r8qb5R3/dUP6nf81SfKeflUP/p68v1pS7P9at2Hnd97Pecxz5P/p5wV5z2v9JvRMRz8kW9MeEVNs1j1z/j99RpGIzPZ80XD8YHsjFv8IhV6/oZzK7g/QJcv1Su6ufhfW0aya7PR3ntd2i4XkX9w8FdTkXxzMH+ZNH4dAzMR9j0ksE9gtVId7g3v1r/xaHZWe3V5HitWdtlwP3c1B+eERtBm+KNk89jt57LxPQiep9usnAiPLH+ncyEQReEKsiMaS3RhfPjzrJROAHm7A584qNBuJtPhSBBy3HOyjk8K0qdFYsEY9YqhckoTSzW1tU47VRsHRrnzaqRNTQGZm2u6OYtppXudnQ6lzYMa9Bkjsg4rN+SZ0HtqSn2C4jeBS0vnzwbfecjrVGWeJC9IHR31rLCtHfACCUrGfocCMHsO8QUcCRy1aB7t0QTSNuMvIQH2qeubsuTBPJaYShOMjkPlaZetIfW9D1AxJvfKRKKdqYHh+pWuzAHx1rZOv45mZZt1uWBhCDXK5oDcjev+FTItmabUbUV6KWd0YuJcEq44rUhnpBoPcUTrUaxIGpy0WopttJMaFGqphG3ArmRRqcyeYycM7acfmFekXLAL9QrygyC8jevjVFmoII1Y54eKV+QKtHCbfDPNx890hWbCl1Z1SaqHQ5QneYh8hFtNjZrGwE4Dy0a0+DEmK0ZaLTt0oGrSl56oAt3wYbFXCcXfFsD84rN6EYnj6fZnGF2P5CD1Z37Z2Bo0q3W9HChdGse2Ao0y9a6vbcCMatl84x59FcvyrQ8B+JH3f3Wgea+G4vrgX6l2/iByS1/3Veaa4pHuCBHoSbxYVVxk7sKh7XpbOoSInBM9pUa5gGHM/MwULLZeY3rBAc3FrvjGLoc7oby6K8nd+6LAv5Cs82X8cQNm6Oy+Ul5NKROh02nWZJq+ZhufeM1SRXI5xvTKCKZJ3ZMo7mMTMo67R14JvdSkCqbpYAM2cb4+PwT7xSq4VBItx7Vq9xUs8wILH7r4ChrWqR44k22WuxxGLxizbODk9fTsuPjMHIqq7nfZ5DeoVz8AnIOF3uHygM/qnaMDZ6iuxQEdRhcYrpNb1EFfOlmoHg+zRVSPvfDRISubUvjMEela150cN+DD8sYbGbmMFrweJqjokc08qijobjGCOjNbN+lqgKOex2K/namoJwGz3amPnw6bA8F7m98Uvi9KCCJvSt0NpU+LINROP+snamc59BbdCkc1kHOw9NtfKcgtrVzm5RPH1ieLI7z65qY2UzKfOLELi3n+jBiR0e7cCnX7Ma9cpjU0vUWPc2C6XopnqbNGBd653LPaVPWd30BG2MtCGFy3CdJ4IsCzjdoujUalzTOpgBtGzx4pWkR9i4ioc9q0+5P05ealkmf5jtdKeAt6gqHGVX+DocpWFcKOGer6aXYmNvsUuG0cFLtlHmukHkCLSGIsM9DVwU0xmY1WsR0wjRa2dNUOHNO2nG8pU7yCjwOvFtRElNFuxGo3EUyLflVuYxyWqRYB89GakYcdDYCwtRzmJJ4pYALd6WAkx5d4TBL8krhYDVUobL7YyeuMmGq26WlQAXjW0EeqSAq/Rx08aJwsEvi6O7Jp4dfsCLYxO8gLIf1MN6paS6rJj6i7WJkLRoymwRcuVB+NjUCNfLgonpBLUWlGrPaEQ1YO3Uxkfkw/69qHqhwOmEjYvILnCJcCsr3w/wK0whgS+eFK9pRU/opxNcS9cbz0QwTWAqI/hT7ShVz7LuGJakCBhzZvlLBspzNSmwKuNJe+M+NFNM7HZgJeXqrSeY7zrhjC/cWTyvOLInHbFmtQ4k8/jhpoc1SwIVzfrbAC2cNybtBiB9JO9gOmICl/TOPUZnWg3fooZrW5LfHSNARTbpwS4FYZGfUhctc1TKjHqDMfczTiacar0PUKCtzhuOJcj8UuMprK0RVwGs3Kq6RC0MtUZHEzMPIZrS9xO23WyGoAk5ktqR8zqeF092aGDmJ2nK2C2MOCtKjGflM+0tz08o01rB8CGmiGuMc+Ew7Lxn3WfhXSlxoO62uMnH90jTqjzTYb7VhBbuMixW0mbsxdm+lC4m7dXYeKKsC1SR6pmlXZHPySyrVEjcoDaub2T0A9AvDKOIOQxKHcRokXIedU7RfoOzAGLZb+QCNoTBF4ln0O9VVVIEA2mEZjjixUP05tfRFgTyyXYjfVQGHJBq4GQfXCRj6Ewcn5Q0Y3EW49JWavXTHisFhcVw8zG20iYRLgXKKw8KyyL73sLAs8i26E4LGEUMDBpeCklrxLboU9CtlnopibRXxUNZvfRsxYfLrOabhoRCRGGQpKBPNo97onYJS0QSklhk2fy0yd/duDfpoKnk238hWycNFMBaUcRHZyOpdDcy6Dh+2wWbVinKYq2ck7a3ggvvn0O8HbsoHx8hHDkc5aqxUeRJu1Ai0YgA6gkXdXCsT1GJz72SfRvaNUU+f2szDXOt9WEjCzzMU+MjIndv90sT93LuRv2DAs7Ow4rogHtar+UZ42fSiAVU8VR/qTYD5m27k7xH3Zzey5sjfx7x+Nrk9aKF5xLu1TSOL5Hmrw8hSsbR+yUvYH3G/tW53PeYLWlO3MeC12qyZkLlWms2y5xHqzWoaA+JZLWlwwAByM/KygPWJzcidA0bKder+P8gPxacP8pb6O8g3Tf8HrOjxWboH+ayFJIGH+yZNBvEsiRqVLDtgmn3JB/v71GNxsV6UhSxDewECcreWrn0oAaOBYonXwLPYrJkhcE+JTYY9yGeNdA/Pk/y84Ptap+jhexq5eeA5tQYe8PrmoWnpw98f6s/w8+euBdL8fbJlvfn7b0DVnp+7yaLtT2oms0HBPCstGxnZQd6GbQTmtgoaX7D8Dlfs+5D8UPLQg3zXNO5B3przDvL1Yn1J3sgdDrPtkpZE837Y7o69L3WRBs1a83mMNqOZA9o43H5ip7o15fF9FKv6bwHj31h8/1ASZlNL6/chNDXasLqIbV3eys8Z+hg0HjwU+BqegDUJQwsGeHJq94ch1NVqMDjWsbamhDQW1fBTLGIsGogzqXnRzszM94qGydwUk22EE0bVxgh1IjySGJzLd8wlrwd6fonQGmJi0abl8QFX+8HcSDa7oGNHov11ZnqJetlyesiI2Llfxnt5T39dkPBwoMGXBtLIHUWWJ42RmSR0l8V4oLUXyxrTifbfaOeJxtbHTGSsLrfc9qYowWNyIY/vq9mXfNibivQcaGQMKeGxcf49mWbKkZuCWW1DLrc8j5UZ3/P3g42Z4OcPlh4oeP0EjVRiQbNpkdBeXxy7o9mHfBojdZBf//DHj3/98vVffv71t9/+/OvL539+ev3/P3/+8ukfXz7/6/efHv/pz19+/OPT+rf/Bw==);lineShape=1;" parent="1" vertex="1">
                    <mxGeometry x="465.8665123723704" y="50.00387228552884" width="218.73652649053014" height="399.0635605513018" as="geometry"/>
                </mxCell>
                <mxCell id="79" style="edgeStyle=none;html=1;exitX=0.571;exitY=-0.005;exitDx=0;exitDy=0;startArrow=diamondThin;startFill=1;endArrow=open;endFill=0;endSize=12;sourcePerimeterSpacing=-1;startSize=14;exitPerimeter=0;entryX=0.5;entryY=1;entryDx=0;entryDy=0;" parent="1" source="71" target="11" edge="1">
                    <mxGeometry relative="1" as="geometry">
                        <mxPoint x="329.5" y="444.78" as="sourcePoint"/>
                        <mxPoint x="329.5" y="204.77999999999997" as="targetPoint"/>
                    </mxGeometry>
                </mxCell>
                <mxCell id="71" value="Address" style="swimlane;fontStyle=0;childLayout=stackLayout;horizontal=1;startSize=26;fillColor=none;horizontalStack=0;resizeParent=1;resizeParentMax=0;resizeLast=0;collapsible=1;marginBottom=0;" parent="1" vertex="1">
                    <mxGeometry x="250" y="428" width="140" height="208" as="geometry">
                        <mxRectangle x="160" y="120" width="90" height="30" as="alternateBounds"/>
                    </mxGeometry>
                </mxCell>
                <mxCell id="73" value="street: String" style="text;strokeColor=none;fillColor=none;align=left;verticalAlign=top;spacingLeft=4;spacingRight=4;overflow=hidden;rotatable=0;points=[[0,0.5],[1,0.5]];portConstraint=eastwest;" parent="71" vertex="1">
                    <mxGeometry y="26" width="140" height="26" as="geometry"/>
                </mxCell>
                <mxCell id="74" value="number: String" style="text;strokeColor=none;fillColor=none;align=left;verticalAlign=top;spacingLeft=4;spacingRight=4;overflow=hidden;rotatable=0;points=[[0,0.5],[1,0.5]];portConstraint=eastwest;" parent="71" vertex="1">
                    <mxGeometry y="52" width="140" height="26" as="geometry"/>
                </mxCell>
                <mxCell id="75" value="complement: String" style="text;strokeColor=none;fillColor=none;align=left;verticalAlign=top;spacingLeft=4;spacingRight=4;overflow=hidden;rotatable=0;points=[[0,0.5],[1,0.5]];portConstraint=eastwest;" parent="71" vertex="1">
                    <mxGeometry y="78" width="140" height="26" as="geometry"/>
                </mxCell>
                <mxCell id="76" value="district: String" style="text;strokeColor=none;fillColor=none;align=left;verticalAlign=top;spacingLeft=4;spacingRight=4;overflow=hidden;rotatable=0;points=[[0,0.5],[1,0.5]];portConstraint=eastwest;" parent="71" vertex="1">
                    <mxGeometry y="104" width="140" height="26" as="geometry"/>
                </mxCell>
                <mxCell id="78" value="city: String" style="text;strokeColor=none;fillColor=none;align=left;verticalAlign=top;spacingLeft=4;spacingRight=4;overflow=hidden;rotatable=0;points=[[0,0.5],[1,0.5]];portConstraint=eastwest;" parent="71" vertex="1">
                    <mxGeometry y="130" width="140" height="26" as="geometry"/>
                </mxCell>
                <mxCell id="77" value="state: String" style="text;strokeColor=none;fillColor=none;align=left;verticalAlign=top;spacingLeft=4;spacingRight=4;overflow=hidden;rotatable=0;points=[[0,0.5],[1,0.5]];portConstraint=eastwest;" parent="71" vertex="1">
                    <mxGeometry y="156" width="140" height="26" as="geometry"/>
                </mxCell>
                <mxCell id="80" value="zip_code: String" style="text;strokeColor=none;fillColor=none;align=left;verticalAlign=top;spacingLeft=4;spacingRight=4;overflow=hidden;rotatable=0;points=[[0,0.5],[1,0.5]];portConstraint=eastwest;" parent="71" vertex="1">
                    <mxGeometry y="182" width="140" height="26" as="geometry"/>
                </mxCell>
                <mxCell id="86" style="edgeStyle=none;rounded=0;html=1;exitX=1;exitY=0.5;exitDx=0;exitDy=0;entryX=-0.002;entryY=0.864;entryDx=0;entryDy=0;entryPerimeter=0;startArrow=diamondThin;startFill=1;endArrow=open;endFill=0;startSize=14;endSize=12;sourcePerimeterSpacing=-1;" parent="1" source="78" target="25" edge="1">
                    <mxGeometry relative="1" as="geometry"/>
                </mxCell>
                <mxCell id="108" value="" style="shape=stencil(pZ3Z0iM3coWfpm8rCjtwPbbfQxFqjRQjqxUtjZe3NxA9Rf48p/hBHb7rJZMEgUQuJxd8Sn/74+cffv/8KZ5//Pn1yz8+//cvP/7586f0b59i/OW3nz9//eXP+adP6d8/pb/99OXr579//fLP33789vfff1iU60//+eW/1if8zze+mo/zXFzx/N9v/3Ie9ds//Mc3+l9/+e0jfThS+g76Mo5chL4MoG9HHN9Dn48Rvoc++ufX9J4+z/VXoW9EX4/chf5fC7ynT0dqL/ThCPT555Gi0Gf4/NSOdAp9i0Cfj/xKH4+zAX04ahD6f23ALX3sel7x6HBeser+p+sA7+nzEZPQV1rPlIfX/ZwXgujn/mehz7Ce0I/ShX7A+YZ2nK/rL5eA3NOXS3yf9B3uY7DzrdeG3dPP7S5CT/sZ4hFef287AshnCEc8hb5koD91/e0YsD/jaK/i048ExzWOEIW8l/fk/VrrRT4u7fiG/FTyXt+Tt0uzPq7ueV2GN/Qi+nNzA6y+XpL4gZ7u4jz5V9U5D7sifRFVlY6C6ynyezPqtqq7Py9Dws/X/ayXMn1H/yrK83JGkP16dPm9/YhwXnP/ZT/HddnenG94NRVTGUW4K+3ajQd9wLveLk32oI+b9ch+Tl2bQPdM+tfzmrowwX42My3lKCAPTU3vOkFcv5jS+S8dP/+U/RnHifLTXs8rnbifVV2BaVzJtpRjvK4/8X0sZkrT0UF+ssrndA4GrD/rfU/1OMn3Oc5X+ZzOygn3Jan8pM6+ibo+aVzf+IZe1jOdrRPuy/RcktIP8k1Uf+aA+xnVtOd4nfgb+iLrT+hrRJWHPM8X9j+qfOYpgeQrHVHoG8qDuQ6ZzzdentqDfqDvPHf7VX7KeX3jG3rxHcrDWXlDL/I5gw1eT0lKT/IztYHQp6MhvbiqM1gquB45r1Iu5/gd/an0nXxVPd9SMVaY9K/3ZQaHAfff6SlW8/V39rWNnvX/HT3p53B5Cw9X+0T/xM530g/ynTUUr2EjD0XWEy8L+E7+m9JX8v0v6/OgTxx7aWg06QvqQwn1J/0A+Ylqv2pGdz4eLSs9xdbx0vYP+oL6IV3e+wd6Oq9p76rSkzwk9bdrxeBo2t+q9B3OK6n/U6eHhuvp8vkd7W9S/2fSV/QHxqv+qeO6Qe/8k1d5ayf6D1nt0aQn/ZyP8Co/LWDsm1UeWkQsxOnTFYD+ZfoG5+v0jIX47y2XxXm3n6/y0yrqfzvfVtH/SVe0+6BveF4Pa/ug74iFTHqBKgZik0njqX6ifbT72wPGU+mKph/0U34IO1R/r7N/kjTe7A8N8I7+VR46+ydOXzDedPq6iS+cntAfp2+Ihfv+dLTvSf29Sc/7L3hIH5v1tFd5GNMfxv0ZVekr6hOBDkdA/yGr/E/6DPJTLu/rAz3Fsw/04EEf0Z+vGu9P+oJ4Tj+VnuK7KS2y/oTy0PW+j4eGeQNmZoEbM+r/BS9GZUjwg0NQMHYykAUOUSGXkTnkSWozxrzz5FMmDconA12CkDUqHJW93HIBzh8YMhxzaJoymwwYt3UNBCYDOvbDJIMjpZWU6spA0ObydY2BsOh5mcW4jobKIlribzJ08qaHupeTgeCLFK+f+GDY4EdZDfhkQAVZNbk1GQhxTd2Er+M55NN0dmcf0PJbO4ZkWnKzpHy3JNil/EAJPjKQX91M0fO25scxfWQAWcrDhK+ja1RcVW4YwgVF/8UllajZhM0ulWR6iQ+ulJtdIvuz4Bo7aXI4S1OPeTKQqixDIajJgCb37j6QBarxSkd+YGj0DfM+2JLIK1xBvakZ0kszihYcYQzEQWo3x2pcqaF7hqGZlLHJNJ3m6g1O7UQTjYG5uGbB12IAvTRjRfVmxuUf3zNU060Dha91xcfGQBs3w7PTfjQ5rDM+Uw93w5CugOUv/oYZQale4m2dIZSmsPmkZ0zkokEo6AyKut0HggVnlKMWqKH7MxlaUQYCBlccZa4DIU0zkIrmJFJo/oy8PrihVAc0GdQjK6iMZ+yVzPduIBrjUbj0gYHSHzOaUjWTrojlHYMa9oQB94qn5EdHRJDm56lnHBDiGVbeNgJiusN9vhNB3XlMqjVOjB+m5AQL0+lOr2hBalg6esbDXOnJgCfdVDQ6V+EsP1gYKkLr41F284GB3NClI14VWS9YqLfMuKBVmSuDuqYfJgP5S0+7/wHfIrxqMQhAF1mWup1DwIzv2qWqDIEZxJvpnGNaDpuAngOLMBaDoJ798tHeisarum+N77S5P5OBcJyna/4BGN6JtyDJZSfeCoWXnSzJBWqMnCyGoAyUjFgMcg4Jsy+L4fXGtUeC6y1DVoZzs0sC6AcMmhaDCN+JFWHrpCWlNS4T8/YbLOdE4cCCDCSpyM7JYgjKEIihWRqsoqO7gBXJsxX2BNrldH5gQJPVNCyrDz/zHYNE7JVLFZ6I2AcGglomQ7Fkc6ELVBV9X9lskiWz05Xh6OXhSX76RPx3IZNNGdD9KVe4/YGB/NbJIL9hRthUgrng2KgMKBqG/pTOdjqrd186Vqk+MegHQ2NVaSXgZWMfsuqlUtlOZ1UCk4Eyme6GrlIZEr6kSOJkICh+MnRhyGyyLJs/GSjanQziCZTM6j6pYS9c/zsZxAJNBhS+qEFTiQgyTwbRrYVToJNBwoESrgTD25AmKgOqyqh3ejKgXooaAxVueZkMwRjwxkVNvOfBiaag57AAVfrR4ZLNB8PGSQwKF+XOjq5/Q7uSJG8ZpHqycpQV9U5nThwtBvmGgvUnI6qayRlxjXXSr8KXNxF7VL81R9atJks5YE3bYhBZOlmWrAo0DaziWwxSptzZ/XGGhnUuI2rAkSo22aw7LU1IG3UfFbZLGVtDRlT3JyWOFK1YbTKg9o431eUI5iQVjcTtJ8ugyEmf18m8tXHSQDAYRMga+MXOLly2FoXG3kyxnoCN1ihapL3KDOgbqrrSkaumFjJpbRYY7VaFT1dlFN2HqvBpTJhOWNlo+YaInRkr4KjKQAlth7xW9eompOnKQI1qN0s6Lw/qLUNShs0uibQG7g/zbZ0Mm9BSQITQ2Sg29QRCwxaxxZCVAaXVIsVQd9sqZncyIBBSFbYLBbH7ySBhWch8p+3GTQaU1qrCFzaVPNUOjttgR9HkV4h8p4uCzCFyOFAUu58MVF20gHI5uMDOSbH7ENirLCatJ5vdrAYlbLD7rLs0OCrLmnjtDKlZ+q6zzc0GkF2b/M6CCsBc2XuzYpCKycGV75FIehePSeFS4btsLQMb0xbMv2VU6TQfBs+rD9VeCT363rSMip2wbt3vEdHJXlRPRHRfuoEAESP0bu5/5Pz1aS2lnOTv6qVGhNFb0/w4V3S2olhSxCiy2X0J2PHWzPEPCMK00xQQWpo6FN8O6EdVy70HtPfVW6rRetfi0yvIBqyGmtfPP7njPGpGOaBhnfRN6alQrFoYFfD+VmspYnCnBi2WCGhUa9CsZ8DU8JrGovJA+r8Gc8+4A/5UvIw7IFc5lsob2a/1+a+/98TUX7W6pBMD8WotgQw+1KD6iqfD1ODrp9KWavpz8/nWonvyxAWDK7kDad0vvY+EItTo+oTsdbUixoARfo0afwes9q5Rywo28m/I5vZ+mf7f3F/1cXf6Iej+4ASLU9MCASdA1FMrEDjIraem4U6sofhu+uzTkcj/mfalqvxjoWNVfXWiv7FytzqdCu/v0LT9icjhM139YX+oBDG4viV7Ov0Tk3/qKG35Rp/TRBmPbLmq0+ogAtdoDkXpAxfuWQFl4FLCpGAyo9XdspkBz7dbUpn9vW4TgCICNt0KdyPjNaeO7IhcnGD2KHGyKqn/uUGdLY2ZuZTB8NeCldDDaq0LV2+UCxR8xrMIBRWrxcAJBwvYeaXfwMd2v7gCf9gIo8EgvkFZAztWvQwjnHjhb+C7wCfWtB9lNZExQzYUCBPbNjbo2XX2jkGN5LbwSSHITbGK1TGFxMUq3eKqhIHn6DorJmTOmlltYigMHXXNB+1wV5v0t0N2uzmXG+zYCjJ36HTXIokd/t0NFd0g7N0MyAbD7zpkbGUJNgxZGTaVgzqma18jmpWBrOwq+RSGyJk/a3CM28JYKaKL3CrrFc3P7uV3DIoM5Z3qFoR9M6lx6XrJmlU+h2o/elNkXXRgyzQ/WFVR1J19TjR8i3/Lb+A2Hwe0E8+sG1nLVhOHjMOmhiSeUjOS3riVCaeTTjbXLHFdnw1OWNl8Eo2ksNKqF9j4Ya+isSoSuJ5MHb1NzUPSuo1dVYUzbOo2zDffVYYktaK72hPbpV11S9KU7a5+xvpRdhU6NpNuVwNkQ312VUZJb9yujimpXspt14Qjc8ty53RnUq87d/YEbHLKmuz2XdWPkwETT15febLfmlUZr6o72tasqZjC2NoqVnk9uBI42ZY1+C8823lkNeyFw88VjhVloHZctw8lst+aFYApmy4FM1mFh3o950U8GDLbaRuTWTKOFRnWQll4Ls3wmc3bsFWLrHlq82KwUXuoKouVD2+6FGz46GTAgpuq0Efpu7oNvQ+d262qgq+TAYWvaglDGSx81bZ17GJRHVl3svA1G7d9suvQVN2vnBBX6CgEEhgjahoD1Q0I1awPIrF9sGao1S1CiqzbpLvNne5qsuqm0KDrrNZadl1sEotuhumNbtPoGocDQ8fL1U2f3LjrbaIfPdT92XVPWVv0rj9rGD626QCzwRy7HrNh3YQbMGdoyn7XJzd0htGuE2+oz7fr9RtaHrbrJvRt3fQr+sFV1q0mGq1xWOZLatgAP4be6dbZZNnLHG2w3zo0PO4n2+lx113LDNqpvcEqhwavq0OYd0n8pc4zUMN5Kli52px5m/QrCjekDGtzLhzIDWtCrqy+bSxM50nSSxtXZdiAZOI7rNl83HQplSmb4Xxu2Vdyh/0fHTyzEVefq8TVFKvA0oYjbLoDdc5YxHysV+yvPoQNiiATIfhNgRFttE3ate3oRLnMEJaNAV9lozw3QydCFO46COr/DB5UOc9Vh9xVRmhPdfqetePvGKQrbWwu0GnDEnlWWh/qYT1HPrxj0F0aPLSl2SgPbn5d4z7tG8gPXXrOhhjhezEWgS9tywWaOq5qYExzkyE/ucbCpxjtONagpPR9HD4Yb6C2bEUT65vf3Ww472Kg0olo83M4lmt+6Ti1M51nnY45uFqt30x7Im9glWvattIdqtkGHw10H2YgpnqAp25Va9TcDAJbLe920pT1K0Nj6s30s2Lv1Gzmqy1wxbaVRlyVYg878ci3kjRafKZX7xnizZw7MkIl2GglHlt3O9GQDOntzETKQdxOZaT7cDv3EQeq302WxAnmd7MrCYm7nY5JDk2OJksdbUo+NT21GGiKs6XNx2YsuTVEPXPK9wzWxTI64gLJmn4H59lXWUpSBgISonWyLUyIviFrLLfxT2LUUuDBrxHEOx+LIt4wbDYZ5+SCK7KG6j5Uu9MNtXcomup81uvcM1iH7RMjvWewRy0GtxStrjJZEoPlIdiMaXa/19hrmzGN2SZNmA1OEPSbsdp0G5rmdVYuiYy0rSdh5rVYYMnFFPlmrjmV2VhT2uA3QZNFAps3R83wBB4tbaMVuYsh2jhJfvM1Kq406QnUjOrxdPbabLZq56o/e6dr886AFdFv3jFwen4n4Y6ewlun53xaNOyG35Fw+oQaxYYzdE5qWtNGj4iV2rtt6x0PfPdMKsA6vwtqox/awOpDa9ponK6PGtytd1Tw86VI+RkevrnvEhY1LoFINvmOJyYke7eH37Fxen4nx9efdu8Qyv7HjfwPS6pQlt7eLWzcJm3vFjaulTB5Xu8s8X15/b2VhwHZHP+6eydQ39HiUUDRJvZVvO/+jtnuXbtmn0/6MChotNpi6MGJm3fAqKTUmuRqRn0ebH8ydlEZcFL5HZJTw42aEN08Vd/WhODmqRm/ytNITnuXj7uGT9tPvo+nNoE92xzf0MscqXpiDZllgDbvEN7RE/xhAOLmHcVT9dvmncbTKkca6v9T9XOpGACcNiSxoD9v8lAK+pOGpZeMI3Stab6wfbHAcxVd4e+tRk9dgdakWwICbtaEVPhdqaD7nwfer6DJ68yVREHve27oPweroCy4n0ExoZw373BKGJ+5iyooIpQjAwsav2Qeku6z9Vj/2BMaicF8i0cSp0oN60wds71JE0Opbt5Jk/1PZfOutfhviROAWYuN0u4dRX1nm6dYFk2/rHfCkV78k1WDD/JWbVoXn1dV/Rb5HUUbMrGm0FBOwYaUFJ5ioXm/mLkLWKtcY+Kuc1t/5CkZGm9uum6t8HHTElQ1IRI2GRRrAt48FGQ9TQ3jkWJDLCr6J0XvS+BZt0XxrpARLLaC3sA1M9YkGnb3UYde8IzYau2DmykKNlSGZ/ZXexgNw3d/ng6jqaZoGucCrL9t0yugWGzDta+d0IZbgt78xcINXB2tcJRfRExqe/nZl2CZw4LQw0L0xbfi0NHG1Wd+DXGYL4Ch1PIdtCGcqi39jefET2zb4LuIrky09y0iNrRNyylYMod20/KLrxE4OecDFDEbni0WDJh0ytaQf3I6svoAJlKF0xMX341DzWKjcrndbw0p1wEZBJUWm/O5oR+KtZ/4Ek61WGFDb4PdNwNKTH62n+/7Sa5P1rqZkwdgZdW3G1fDKgBPdpXMFz5Rf97Rk2m/Ww8O6Ln5vRSK3+0nlZDdnRdZx5r1vp+on+/k7f9HP//w+w9//vztLz/98uuvf/z59cs/Pn/8/5++fP38969f/vnbj49/+uPnH37/PP/2fw==);lineShape=1;" parent="1" vertex="1">
                    <mxGeometry x="187.4106462193813" y="21.464216284893155" width="264.9950243776098" height="654.2647862217549" as="geometry"/>
                </mxCell>
                <mxCell id="109" value="" style="shape=stencil(rZ3bDhy3DYafxreD0Vm6Ttv3CBCnMZrGgZOe3r5Ujdnd+an95AC980Hc0UgU9ZP8yfmQvvvtp+9//fghnr/9/uXz3z7+69MPv//0If3pQ4yffvnp45dPv9ufPqQ/f0jf/fj5y8e/fvn8j19++Pr3X7+fI+ef/v75n/MX/v1V7jzyOYXi+Z+v/5Dqkdr//uUvX8f//OmX2/g27uPzUfv78eE42318Okqh8Ul+Px4Jx+t87In1/fh4xHwbH8fRAo1vMr4fcbwfn45Y7uPr0TONb/f1ieVIsJ75SPE+Ph0Dfj8fvd/Hx6PE9+PLkWV8OAL8fj3O+/gwjp5ofL3vV+hHgfVsRwr38e3IMP92jLs+B9Nn0Ad7uowvlwYux48jyHzykXF8u+tDSEeF9Qx2IEUgHh0UNIQjprtAOAadmHiEqAInbJnNOMgTzmvX1wL5OiKXwDhOWCNb8nIf3/EMmwqE+6Y1foF+9Pt409oTzvx51PsLFx5vR+p+iPOlJevxWcenS8vX4+3Q3OcfjwpnYCq1HGLcr2Q6V+8bjGfSTHIQHT0C3Blm8utd486j0/ish9g2BDQ6lWMMGZ/p9+sxqownG5Ha0XX+kcb364g/x+P6DD3z53VE1zbdHt90POhnDtfxe46n82jjuxtPd5Kpo67nCe+b07XcL+Nhf3M+zqDj4bzb+OrG0/qUI7j50PoXv784f3dJbta/+vUPNL4dTfWT9D/36wp9jkcMMa7Xe553wog2vqo9od8v9npqrzKsp40XEBEvlLMeHxSUJcRYNl7Oe0Z9KFFBa75Q3bvx4z4fuwDBnpR0Qbbn/VVA/0tW0N0Qo9h4sc/9uhDW44sCgsH7VfQ+CufuAeP+AoFvpFIVFhvKaXDkTaAJjksXUnsnMAQE5ct1Wgs0VWqDOYRqTCBnFWh0bNrleb1g3UwC/bqGXsB0pWW1i0wE+jEAqZThkAG7V8WZinm3gkC1/+4qQKpRgxqvae1gH0xg4QLB8TcBUQ0TiHD+q7MXJpDJaYp6IWwQWk3q1k9HGdS7PrzIFwHyImrWOyRGXqXs3iFeW7kWMEcsqQCuUlXHZuJkOKLV3bPzIiHVaArc7Sahm6F2p63pwhprAXfVzruK3mFoAGQKgBFo5+IdKMLSgtuHjYBzMPcC6t8ktK0t6QU3BeDEmYB/aQpDtayQ2QQqKJ8JVLdKDVSjFQd6Ejr6rbhQVLr0dy1Q1Q2fsSJapeqCURmBc2uXrf7WJ5hj79+BtLVf//26D2A12rig1OtOwz7089LNb1S+Hi4w/qre8NImMNxOo0B0+5A4iJUuPPiNJ67ny6h8q0BZnAeKk5lAd6qB+2CY1u80vXS7nPBXXaKNa4oqp7aSQHf3Awdb+3CXYkKsYQKLKYF6j9PtNB/RETRWFh/e9DsBRWTs/Qy7xqMTAPU2geaeEOilk7tFM54HE2hOgCJmI7u0QMaNMwF1QQue6VE0cGwCpK0moOehIhIwATUzFdHMqBecegg09B9MQJMJHQMZozno0C/X+p2Abty4Yjlrga7KN4OZpEtdfd0UOIDfNbiY4uXOrgWG2tbEhswEZKdTRrBuAu2+rKlg0sUE+v3EzRAo6dJQdyA1tktDlS8NjImF8xGTewRNOIq5kggYF1tJxEsj376GRPIZJ06Buzrl7d7JGcpltxWCgHK9NPKtdsgTOi7sFJBVGuiDT4W9P6Gc6HOYgLijJVw6/05AjnWJGFIzgVNSNplfuis+KRyEG12TVDPCw6ZJvPwZTmFLEyVNdWKueTg0XcPOvEriw/x+3Ol2hXseApmviHZldh4CBX3wKSBTqug3TYG78plX3unENT2i08nevPR9SuYzR7IaXc2M+cxoNfqFqB4CiafUNSzQ8u5eFNUw5w4tX1MD/vTV3u6DvMPAkKsJiJdvjhGl0SZ6EIHItrVqXN38nEhTMp/jrt69YHZ+VN3pzqnnUdQImFORGImKMTYfgYL9I6mTYj4CecgGv+VuN8jfSMBxbAZTEmwCEsmegBzeoXc1M7YMdD9M3+++07bQdERtXyUAZAIEjs2lFqvxhMvvnHa546Y6wk6b9osRmApPsZAHs+ZFgC6U1vWIjsbhmaZY1+wIsX+ao+cMpkeZFZKcxbwmOSZ1uikhAajomZ4CHOpT5evoQpiAeDXjwSJ6F30Uh3cKUKgvaYhpCtBLR40+TgHauKgp6SnAUeBSnAAcIBMQUzkFaKdPNZWbJ9ShObzNO9SuF/tmWU0g/DEBF5Pa7IOBnej3gbMi0b00BaYNsJ1u48gY+2TTxMq0rEFjIdNnpndwfCOD75QVmWnFrgJ0ixaHKqcLQil/F300AYoYFb8Pg5P+SXHr0xVcC0R34gbGpCbN4W7uXxzgpYT5ecM/gpkjasn4JXLTcMvghLA5t0LInDsHb50dwprKRC+dF2eUsHROms+a6JoEgrtGGxNmTnezsxOUXNp8IlMS6O5WLMxjbm5ZM1rjyRt3oA9ZfsWxRNPFHlgLuCCt4VBa1pTcGQ14BU1io8fSJOByQZ3pz+nUKfWOhzq6SIgJBHhC7G5KDd2s6JJ4vWIyNbq8oqHrRk94UNpfBChDEB+c6hdHjsIOM1Uknl9Cn2Ym+pMKEEdzUmjlCRF1aXLksgqQq/gkub74xwQ2wlAzM10KoooP5V125mGFrp5fG5gAMwHxy0yAjmhoeqG0xzPfCUQXp6CNC1XDoea0ZFqlqvB+Oi0kUNSBaJzamXx3iRfli0L0TkDQeuO8YnBsBAP8GwEhbhl+p4t9ljGIapx4sZuA1CkYficO02TwSaCPPT8TkBNncBzzA8FFNwuG1oOjhk1WE2U5govQMn0hnIqXDI6TA2ECGjQOSG4dyi0wNE7YeyizsnQOayjMNSxOetE1VjShOJEjdEUNidPV4EiSJePxdylLA+4ElKrGTQ23UzK7KqXSYDuhnqp3Z+Figqrc3DxwPkW9PcP4lBJw3HeD+ER2LHrn5Iq0P2fqcsFcf3ZcbcapWb2qzLQrx5SZ7gC5F4oTMpPZHXUnc1Q8qf6b80BxyeiSy4Mv2EUil/brvO73x/iORvfUa2COh/U/1flKHMM8dX1SQ3DqUsQ2nuLtp9ai2HiyD+dF+n4ZTzTwUy/iVPEidnxoG09JklMpSnM86POpfLo5HtdHcMGcP47XAt6GMYvTURka2qtT7yMbT+dx9fsUZF/Nnyjyfn06+kJ+/Rnv+v3tmAPz+tPxPvL62THysNJ/Ynyuzheh79X55QJ2bx/In/b2pyJW9/ator319rMiXjo1kPN/Hh/dfBpi4uT2i+PRSbPAaRPfU33LJ+ZOHuju5T6lFFZWPDarH/F+V8JPxPmU6+kv+IEylUXTiHlTfObmnzmsrMUqhq+IM1I1/pS5oUHV2H5um98XfD5jzIifxWczfEtVUk1rngw/0/3VdP6FK2ea1pYb/qewZ1d9KMz47Vcs7sXfoSCPI8yXivZtqP0vDfGe4x6aP0j8Se+gloEbEFz1vXmoGB0JesWYz4z9BoLu8aRBgY7OQIE42Rmd7EUooiCqXAQ7GGYtwikN/fKQ9KDVDUMza/KzsecZXBlpY1cmuDrSFrERgm8U0bhzQqh6O7VHEuGdgJjfVrjXRdXz35hYMgOYIlAx0zhrNGUfGlK5QlfI0hoH/7qSYxpnrcPQE9cGOnFhaEW+CVBiJTqr0ZmD53G7CVA+dlZQSgYgYE55lis6Aaq/mtDI8deIJ/KshXoIpF0jEVGNnnaZmOIYclTGM69zn7qhxErTA/SsBFoLOJpsr8gYncXmkq9q3O7jdAIdrUYKLl81uIGHK+gd3EEipYUAscCTg7UjoFuaivYUGRFxdvKJ94SBwxknKSqACd/uktYZd9o8A7Gtk04Jy2qugdD3N2nx7EpVR0W7lF1/rydLdS2Q1Z+axFlq5lEU8E2GHFEs6oKZRdBhcjKcwI714agr6FMNR7Qa7PSEBZuGoMMkxyQnADs96Teec0RTcvW5zxqDtYAjE4/OnlhzrI+OrI8y1HfYMeRcMGhSG6ma3BX/DY4e1eiWtSOqnHQ0R2Ily2fAWTkZDS/2SalzR5RybpO0l1UAOXjOhzMBYpctiIeN98FTGzmqtSBPtl1Vv9IztwJqZhomZhYU0807eBJrQ8u3oMk2RDMLIi7vw4Lqu2k/6MnEDdMzC7oyx6ebayY1GP5M98K/NC2rJ7FuntBcRcFmH7p2RRwN3bJZWuL4bnRl9dNNib2sHh2TvaLl6w6sGzihREr3F3vBW9RgrZqZjKHG7u9p7q4wXPB/JC76CeqAG6pE9kB03GDuFWgTEE9xcDO8kZ3/MLgivjgmV+M66eLaY1UMcQ/XiMb2Hku3q/NFEyaRfCV25yi0nS8J5kyuGIX5muLWNrjsuakha533wfkPrXJplBfI2BdyNKURzjI7rjiTini79TbVi6J87eToadNuI3XspiT8m9rQy1oIVC479VMqXJzbFFXWzL0P3D7UxGe6qZmp7O1OSOhixmRbfWFr4cqO0bUOqVQ+oq71k3kUBLBGd5kH7u/jWxkU5ooNdz8UblQ2/UJpVLghi7n2VbN3JPcNULoSpxunmyf5sc0+DEX3M+G1qT2XjFTmwtah0CFzq5spIC+9bUsgZ3qShP7YlE7OAvmmFRzRnavkeT/80rJxm8T7GAp0U+Uz3TU1mwpSGeZ5kCllBifddctn1rgvw07MDpyuqixrYOjgnNd0YpB5QgdpRMOFS8MxEGcTdNrpolYjbmxr0fshcsJiOJLgrnONq6qOmyYa2bUcYlqq4VZt11MwHzdcVdFM5dOUXJflyDnF4apZJrmABHzrp00zfN9cqiC5dtG+qqA/vWiQxXTfRQuugnHv7gjLsaC3213C4vnRhHd+nPYH3TzBOX6RObDdd3IqSIqbBTuuGxWx0GbWR5aVSxYWHeYyoplFDzsmsiy65G0EfB++zFQN3+lvI+CicJuXfmZBX5eVYjN9oUt0T7e+6DuGoRZHmI/svDZ3A00BekJ1jSy5d1pzHKTdE8riHQjozmac7gl0gFp2bSYZazTXwz4WJKnMlqXOtlL+obl0806XXIHx5kybM6xWY6Pep8a99wLhD53pOjRMMQUoJdLdxnHDLnO3tcFu5t7LzYETrjipVUsknqTHtUBZ9MuljZs5FNdmEkl5Wb8osGnGWV1R9SxsoJd2ofhNB9JJ0XICWAjjP92U8ABVR/CIkVNTwb0DNygygegaTmOH6tO1v+VqkuroxJO2wq0VJIgQA7rHxeOlwLldVxM6Oc8k0Fxv/oHnYdE5nx2O0vRiD41TtVVdy0njoif471xVDJ+agODWZ1npOwH9KlPBmEBxmC9kDPaXsvioAk4pK8AKAWs/5ocnZOOY6jmb+g0VIDZscaxHDrfaeIHeXA1RorZCbLwJ0XFVd58iEbeyoB0urqkUs4XLqb+fMXpQXHkGs9Pz0KBmQrZwdhHHiF70/JSNQBK0j9nd5gEjDdl/xQNbDGV/jNHWZcdo3VQrOMps2H06yX0KiTDh6lNLuD6LTznRAV59KopMyupTVHQlrz51heMXn9JCHp7TZ55/cl9Q4fVJj16WL/tL86naAyKgV2HjT9Uf8nPmp9jEQmNEaLY6li/GMMUvKvEr8Pr7ABKTdrty3bh1of8+JaPSRfkQN/mIrtwFb8hZXihJIe6y4OwnV3eGpvrfkII2P0kkiWdEvMF1chlIUA5Jk5F2weMDohqgwKnCEHRGgTF4ODW3aJPErimuxDDkTUmN3GGzMIKYJBrBDwW/1eN6pAcuKW4OlXFJa3M2ZWAw0Ucruc9xcU5QYCztHI64+UauJgcyHnpXGDMPJRGfnQ1itlPSksfIjaOjyxmdXDbgUkaBFdqVREc2Qq7lAH9nw3+eL29K/LWkm0nbp96pqeJ+nXq+Zgk7lkSLjd501z/VEZvjsSS6uvkTKDvVJ9n+vtypiVPqp9aEbNcnu9/n9c9ufYjA66LuiX3t1XjKx/zxb6Tvxtsfnh9k//HTzz9//Z776//rB9ztn75+/D39+b8=);lineShape=1;" parent="1" vertex="1">
                    <mxGeometry x="119.308150833323" y="384.3390420408066" width="573.6193341802621" height="338.57364585730124" as="geometry"/>
                </mxCell>
                <mxCell id="110" value="" style="shape=stencil(lZbdUttADIWfxrdnpNX+XlN4D2YIjYc0YUKg5e3R1mOIlkSd3vnv88pHR8c7yc3L9v55MwV6OR0PT5vf88NpO8mPKYR5v90c55MeTXI7yc3j4bj5eTy87h+W8+f7/mQ/+nV462/4s3CNUEKnAr0vV2JCan+v3C3Abt6fAxmlGCAJWnWAhsoGyIKaXSCJAUoEeyUltGyAqis4QG2IFmiMFh1AVbIltYLE14FCyFYlJgLRdSITJNolGtiRKRGq7ZzqQE4jooBtI2oFO4BUkAVK84EMsrrmBhIHKGMjUkV1VIphXCGqW5zO6W1pFggITklaQK4G0CKzs0KuaMkCGSE53lARrZlU6OB8dG+TXUFbGfyBoGFG6V8zykPjCLFcB87c/OkNWoPh8hI6MBbQofJa3UdysGtbX3FZJh36YUg1GJySeqzYkr6i53KrBeXbjFYnBjQa6wBofHozmhCHoVZZHTN1QP4HkDima09Dx0whrm7+BBKyE0yc1rQ+i43ofHRBtW4tDHHaEMYwzrym7cXn1ar2AxKvKXLteWuLSODg1ZNsYgRfUc0TWz831xQcR4GYkZweBxmBBHEmRz0x/Bm0AY6garpBofHfpgdfO47HebdbNizn98cdil5adjdy+wE=);lineShape=1;" parent="1" vertex="1">
                    <mxGeometry x="564.9705532651656" y="585.7243831032068" width="2.011698192190488" height="2.017869409283594" as="geometry"/>
                </mxCell>
                <mxCell id="111" value="" style="shape=stencil(lZbdUttADIWfxrdnpNX+XlN4D2YIjYc0YUKg5e3R1mOIlkSd3vnv88pHR8c7yc3L9v55MwV6OR0PT5vf88NpO8mPKYR5v90c55MeTXI7yc3j4bj5eTy87h+W8+f7/mQ/+nV462/4s3CNUEKnAr0vV2JCan+v3C3Abt6fAxmlGCAJWnWAhsoGyIKaXSCJAUoEeyUltGyAqis4QG2IFmiMFh1AVbIltYLE14FCyFYlJgLRdSITJNolGtiRKRGq7ZzqQE4jooBtI2oFO4BUkAVK84EMsrrmBhIHKGMjUkV1VIphXCGqW5zO6W1pFggITklaQK4G0CKzs0KuaMkCGSE53lARrZlU6OB8dG+TXUFbGfyBoGFG6V8zykPjCLFcB87c/OkNWoPh8hI6MBbQofJa3UdysGtbX3FZJh36YUg1GJySeqzYkr6i53KrBeXbjFYnBjQa6wBofHozmhCHoVZZHTN1QP4HkDima09Dx0whrm7+BBKyE0yc1rQ+i43ofHRBtW4tDHHaEMYwzrym7cXn1ar2AxKvKXLteWuLSODg1ZNsYgRfUc0TWz831xQcR4GYkZweBxmBBHEmRz0x/Bm0AY6garpBofHfpgdfO47HebdbNizn98cdil5adjdy+wE=);lineShape=1;" parent="1" vertex="1">
                    <mxGeometry x="564.9705532651656" y="585.7243831032068" width="2.011698192190488" height="2.017869409283594" as="geometry"/>
                </mxCell>
            </root>
        </mxGraphModel>
    </diagram>
</mxfile>